<svg xmlns="http://www.w3.org/2000/svg" width="92" height="34" viewBox="0 0 92 34" fill="none"><path d="M1.29283 10.8824C1.28772 10.893 1.28285 10.9037 1.27798 10.9144C1.26755 10.9373 1.25711 10.9603 1.24431 10.9819C0.396431 12.4106 -0.214996 13.8991 0.0715227 15.6147C0.214958 16.4736 0.525902 17.2572 1.12863 17.9022C2.17416 19.0211 3.55256 19.3023 4.98446 19.3128C5.8326 19.319 6.68591 19.1378 7.51648 18.9336C9.02509 18.5628 10.4359 17.9345 11.7644 17.1432C12.7996 16.5266 13.8186 15.8827 14.8376 15.2388L14.8378 15.2386L14.8384 15.2382C15.323 14.932 15.8076 14.6258 16.294 14.3225C18.1006 13.1959 19.9339 12.1338 22.0523 11.677C23.2119 11.427 24.3659 11.3462 25.501 11.7256C26.7578 12.1457 27.3487 13.0452 27.4946 14.246C27.6179 15.2605 27.4154 16.26 27.0902 17.2121C26.663 18.4626 26.0983 19.6553 25.4107 20.7932C24.4108 22.4477 23.2091 23.9301 21.8605 25.3118C20.4963 26.7095 18.9935 27.9368 17.412 29.067C16.1786 29.9486 14.9067 30.7885 13.4551 31.2817L13.419 31.294C12.9257 31.4617 12.4223 31.6329 11.8772 31.5905C11.1911 31.5371 10.6887 31.049 10.7577 30.4783C10.804 30.0948 10.9315 29.7412 11.1295 29.413C11.9062 28.1255 12.9468 27.0783 14.0924 26.1192C14.7395 25.5774 15.3641 25.008 15.8223 24.2796C16.3424 23.453 16.2332 22.4043 15.6552 21.8686C15.1285 21.3806 14.4712 21.1694 13.7806 21.0959C12.2936 20.9378 11.003 21.4621 9.85456 22.3554C8.76917 23.1996 7.90771 24.246 7.2216 25.44C6.76183 26.24 6.45334 27.1027 6.17934 27.9738C5.8912 28.8898 5.93493 29.8522 6.00928 30.7914C6.07138 31.5757 6.46323 32.2718 7.02865 32.8126C7.60752 33.3663 8.3561 33.6273 9.1433 33.7541C10.7031 34.0053 12.2186 33.695 13.7247 33.3533C14.1036 33.2673 14.4772 33.1475 14.8501 33.028L14.8512 33.0276C14.9915 32.9827 15.1317 32.9377 15.2721 32.8946C15.8464 32.7183 16.3956 32.4859 16.944 32.2539L16.9448 32.2535C17.124 32.1777 17.3031 32.1019 17.483 32.0281C18.1647 31.7485 18.8157 31.3916 19.4654 31.0355C19.5032 31.0147 19.5411 30.994 19.579 30.9732C19.5981 30.9627 19.6173 30.9522 19.6365 30.9417C20.5181 30.4594 21.3702 29.9295 22.194 29.3615C23.49 28.4679 24.7319 27.5016 25.8932 26.4312C27.0046 25.4069 28.0734 24.3415 29.0337 23.178C30.148 21.828 31.1757 20.4102 31.9523 18.8311C32.0195 18.6946 32.0877 18.5582 32.1559 18.4218C32.4551 17.8239 32.7553 17.2239 32.971 16.5964C33.3677 15.4421 33.6895 14.2676 33.8491 13.0406C34.0067 11.8289 33.977 10.6342 33.7698 9.45407C33.5433 8.16484 33.0911 6.94113 32.4313 5.78918C31.7411 4.58398 30.8862 3.52689 29.8169 2.6585C27.7473 0.977899 25.3096 0.289887 22.6926 0.171093C21.6757 0.124934 20.6589 0.176841 19.6395 0.290918C18.5402 0.413951 17.4574 0.610516 16.3956 0.887158C14.967 1.25934 13.5795 1.76873 12.2208 2.35592C10.7887 2.97482 9.41037 3.69462 8.09445 4.52658C6.67733 5.42253 5.33703 6.42695 4.10516 7.56908C3.0488 8.54849 2.08285 9.60582 1.29283 10.8824Z" fill="white"></path><path d="M43.2822 13.2468H41.4716L44.9276 8.44149L41.6437 3.89777H43.4475L45.8639 7.34687L48.2666 3.89777H50.0772L46.8002 8.44149L50.2562 13.2468H48.4456L45.8639 9.58431L43.2822 13.2468Z" fill="white"></path><path d="M57.3661 11.1581V7.74012H56.1606V6.6008H57.3873V4.51205H58.7479V6.6008H60.8981V7.74012H58.762V10.9953C58.762 11.687 59.178 12.0329 59.8688 12.0329C60.1931 12.0329 60.6373 11.9447 60.9686 11.8091L61.1519 12.962C60.8135 13.1315 60.2143 13.2468 59.6714 13.2468C58.2544 13.2468 57.3661 12.4805 57.3661 11.1581Z" fill="white"></path><path d="M63.4755 13.2468V9.68335C63.4755 8.20481 64.4157 7.82325 65.138 7.82325C65.5367 7.82325 65.8178 7.92904 65.9159 7.96595L65.926 7.96977L65.9352 7.97315L66.0783 6.73309C66.0783 6.73309 65.6899 6.56956 65.1789 6.56956C64.4634 6.56956 63.8434 6.88299 63.4755 7.59841V6.70583H62.1196V13.2468H63.4755Z" fill="white"></path><path fill-rule="evenodd" clip-rule="evenodd" d="M69.7039 13.4964C67.6952 13.4964 66.2197 12.014 66.2197 10.0399C66.2197 8.05883 67.6397 6.56956 69.6554 6.56956C71.595 6.56956 72.8556 8.01034 72.8556 9.79054C72.8556 9.99834 72.8418 10.2131 72.8002 10.4278H67.6397C67.7021 11.4253 68.5541 12.208 69.7039 12.208C70.5351 12.208 71.2001 11.8547 71.6989 11.072L72.7102 11.8062C72.0937 12.9145 70.8815 13.4964 69.7039 13.4964ZM69.6416 7.80946C68.6233 7.80946 67.8475 8.46751 67.6744 9.40263H71.4633C71.3802 8.46751 70.5975 7.80946 69.6416 7.80946Z" fill="white"></path><path fill-rule="evenodd" clip-rule="evenodd" d="M73.6277 11.3335C73.6277 12.6003 74.7577 13.3078 76.1996 13.3078C77.0939 13.3078 77.8634 12.9439 78.2724 12.3375V13.173H79.6173V9.12336C79.6173 7.55335 78.4318 6.56956 76.5601 6.56956C75.3469 6.56956 74.2794 7.25013 73.7664 7.88352L74.6329 8.71906C75.0281 8.28108 75.7144 7.82288 76.5393 7.82288C77.5722 7.82288 78.2447 8.42932 78.2447 9.23791V9.5883C77.9396 9.4468 77.3643 9.28508 76.567 9.28508C74.8201 9.28508 73.6277 10.1206 73.6277 11.3335ZM75.0142 11.2863C75.0142 10.5856 75.7351 10.3026 76.6017 10.3026C77.3227 10.3026 77.9604 10.471 78.2447 10.6125C78.2447 11.4952 77.4821 12.2162 76.4007 12.2162C75.6173 12.2162 75.0142 11.8726 75.0142 11.2863Z" fill="white"></path><path d="M80.7205 13.2468H82.0763V9.5607C82.0763 8.47735 82.8735 7.85051 83.8479 7.85051C84.8086 7.85051 85.3877 8.47735 85.3877 9.5607V13.2468H86.7436V9.47894C86.7777 8.4501 87.5612 7.85051 88.5151 7.85051C89.4758 7.85051 90.055 8.47735 90.055 9.5607V13.2468H91.4109V9.27454C91.4109 7.68698 90.4706 6.56956 88.7263 6.56956C87.6021 6.56956 86.7845 7.14871 86.3893 7.78919C85.9737 7.03288 85.1833 6.56956 84.0591 6.56956C82.9076 6.56956 82.2876 7.19641 82.0763 7.53027V6.70583H80.7205V13.2468Z" fill="white"></path><path d="M50.4982 11.8666C51.0021 12.7926 52.0506 13.3781 53.3238 13.3781C54.7127 13.3781 55.9111 12.6088 55.9111 11.4173C55.9111 10.1713 54.9851 9.70831 53.5621 9.36107C52.6021 9.12958 52.1187 8.99341 52.1187 8.49639C52.1187 8.07425 52.5544 7.80191 53.2012 7.80191C53.9706 7.80191 54.5289 8.19 54.883 8.69383L55.7885 7.91766C55.3527 7.20276 54.42 6.56956 53.2012 6.56956C51.8668 6.56956 50.7842 7.33212 50.7842 8.51681C50.7842 9.81044 51.7851 10.253 53.1876 10.5662C54.1476 10.7841 54.5493 10.9338 54.5493 11.4173C54.5493 11.8598 54.0251 12.139 53.3238 12.139C52.4932 12.139 51.8668 11.6964 51.4991 11.0564L50.4982 11.8666Z" fill="white"></path><path d="M51.0402 18.1485H49.697V27.7005H51.0402V18.1485Z" fill="white"></path><path fill-rule="evenodd" clip-rule="evenodd" d="M42.861 27.7005V24.2677H45.2218C47.1214 24.2677 48.3493 23.0669 48.3493 21.3777C48.3493 19.6681 47.1214 18.4945 45.2218 18.4945H41.4363V27.7005H42.861ZM42.861 19.7902H45.1608C46.2801 19.7902 46.8636 20.4822 46.8636 21.3777C46.8636 22.2596 46.2801 22.9652 45.1608 22.9652H42.861V19.7902Z" fill="white"></path><path fill-rule="evenodd" clip-rule="evenodd" d="M55.1086 27.8362C53.6975 27.8362 52.5917 27.1238 52.5917 25.8484C52.5917 24.6273 53.7586 23.786 55.4682 23.786C56.2483 23.786 56.8114 23.9489 57.1099 24.0913V23.7386C57.1099 22.9245 56.4519 22.3139 55.441 22.3139C54.6337 22.3139 53.9621 22.7752 53.5754 23.2162L52.7274 22.375C53.2294 21.7373 54.2742 21.0521 55.4614 21.0521C57.2931 21.0521 58.4532 22.0425 58.4532 23.6232V27.7005H57.1371V26.8592C56.7368 27.4698 55.9838 27.8362 55.1086 27.8362ZM55.5021 24.8104C54.6541 24.8104 53.9485 25.0954 53.9485 25.8009C53.9485 26.3911 54.5388 26.7371 55.3054 26.7371C56.3637 26.7371 57.1099 26.0112 57.1099 25.1225C56.8318 24.9801 56.2076 24.8104 55.5021 24.8104Z" fill="white"></path><path d="M62.1685 27.7955L62.026 28.1686C61.7343 28.9284 61.3816 29.3694 60.5064 29.3694C60.1672 29.3694 59.8144 29.2812 59.6313 29.1998L59.4888 30.3124C59.6041 30.3734 59.9908 30.5498 60.5675 30.5498C62.1549 30.5498 62.718 29.7357 63.2404 28.5281L66.3611 21.1877H64.8822L62.8673 26.3165L60.8388 21.1877H59.3599L62.1685 27.7955Z" fill="white"></path></svg>